<?xml version="1.0" encoding="UTF-8" standalone="no"?>
<svg
   xmlns:dc="http://purl.org/dc/elements/1.1/"
   xmlns:cc="http://creativecommons.org/ns#"
   xmlns:rdf="http://www.w3.org/1999/02/22-rdf-syntax-ns#"
   xmlns:svg="http://www.w3.org/2000/svg"
   xmlns="http://www.w3.org/2000/svg"
   xmlns:sodipodi="http://sodipodi.sourceforge.net/DTD/sodipodi-0.dtd"
   xmlns:inkscape="http://www.inkscape.org/namespaces/inkscape"
   id="elkrytco5yj1"
   viewBox="0 0 150 130"
   shape-rendering="geometricPrecision"
   text-rendering="geometricPrecision"
   width="150"
   height="130"
   version="1.1"
   sodipodi:docname="loading-fixed-2.svg"
   inkscape:version="1.0.2 (e86c870879, 2021-01-15, custom)">
  <metadata
     id="metadata168">
    <rdf:RDF>
      <cc:Work
         rdf:about="">
        <dc:format>image/svg+xml</dc:format>
        <dc:type
           rdf:resource="http://purl.org/dc/dcmitype/StillImage" />
        <dc:title></dc:title>
      </cc:Work>
    </rdf:RDF>
  </metadata>
  <defs
     id="defs166" />
  <sodipodi:namedview
     pagecolor="#ffffff"
     bordercolor="#666666"
     borderopacity="1"
     objecttolerance="10"
     gridtolerance="10"
     guidetolerance="10"
     inkscape:pageopacity="0"
     inkscape:pageshadow="2"
     inkscape:window-width="1920"
     inkscape:window-height="986"
     id="namedview164"
     showgrid="false"
     inkscape:zoom="3.856089"
     inkscape:cx="46.536302"
     inkscape:cy="66.567176"
     inkscape:window-x="-11"
     inkscape:window-y="-11"
     inkscape:window-maximized="1"
     inkscape:current-layer="elkrytco5yj1"
     inkscape:document-rotation="0" />
  <style
     id="style142"><![CDATA[#elkrytco5yj4_to {animation: elkrytco5yj4_to__to 1000ms linear infinite normal forwards}@keyframes elkrytco5yj4_to__to { 0% {transform: translate(88.100502px,58.284998px)} 10% {transform: translate(86.334886px,57.322003px)} 20% {transform: translate(84.184598px,57.381246px)} 30% {transform: translate(82.494625px,58.102232px)} 40% {transform: translate(81.264967px,59.484962px)} 50% {transform: translate(80.495623px,61.529436px)} 60% {transform: translate(81.416253px,62.852924px)} 70% {transform: translate(83.181869px,63.815919px)} 80% {transform: translate(86.177143px,63.396183px)} 90% {transform: translate(88.251788px,61.652960px)} 100% {transform: translate(88.100502px,58.284998px)} }#elkrytco5yj6_to {animation: elkrytco5yj6_to__to 1000ms linear infinite normal forwards}@keyframes elkrytco5yj6_to__to { 0% {transform: translate(94.781582px,62.036991px)} 10% {transform: translate(94.371806px,58.171074px)} 20% {transform: translate(93.301237px,56.918672px)} 30% {transform: translate(90.631465px,56.504680px)} 40% {transform: translate(88.232660px,57.762295px)} 50% {transform: translate(86.369141px,59.646111px)} 60% {transform: translate(86.375791px,62.363125px)} 70% {transform: translate(87.981645px,64.241728px)} 80% {transform: translate(89.587498px,66.120331px)} 90% {transform: translate(92.521587px,65.488917px)} 100% {transform: translate(94.649424px,62.559695px)} }]]></style>
  <g
     id="elkrytco5yj2"
     clip-rule="evenodd"
     transform="translate(0,-24)">
    <g
       id="elkrytco5yj3"
       transform="matrix(0.912618,0.49716,-0.634825,1.16533,48.1864,-44.3273)"
       clip-rule="evenodd">
      <g
         id="elkrytco5yj4_to"
         transform="translate(88.100502,58.284998)">
        <rect
           id="elkrytco5yj4"
           width="7.7090001"
           height="51.389999"
           rx="0"
           ry="0"
           transform="translate(-3.854502,-25.694998)"
           clip-rule="evenodd"
           fill="#333333"
           fill-rule="evenodd"
           stroke="none"
           stroke-width="1"
           stroke-linejoin="round"
           stroke-miterlimit="2"
           x="0"
           y="0"
           style="fill:#dedaca;fill-opacity:1" />
      </g>
    </g>
    <g
       id="elkrytco5yj5"
       transform="matrix(0.86360025,0.57812998,-0.73821622,1.1027384,68.3799,-36.8006)"
       clip-rule="evenodd">
      <g
         id="elkrytco5yj6_to"
         transform="translate(94.781582,62.036991)">
        <rect
           id="elkrytco5yj6"
           width="7.7090001"
           height="55.650139"
           rx="0"
           ry="0"
           transform="translate(-3.854502,-29.955136)"
           clip-rule="evenodd"
           fill="#333333"
           fill-rule="evenodd"
           stroke="none"
           stroke-width="1"
           stroke-linejoin="round"
           stroke-miterlimit="2"
           x="0"
           y="0"
           style="fill:#dedaca;fill-opacity:1" />
      </g>
    </g>
    <path
       id="elkrytco5yj7"
       d="M 141.91,153 H 12.12 V 26 H 141.91 Z M 24.28,89.46 V 90 c -0.042,2.166 0.032,4.332 0.22,6.49 0.402,3.615 1.146,7.185 2.22,10.66 1.595,5.27 4.055,10.237 7.28,14.7 5.917,8.179 14.472,14.078 24.22,16.7 5.566,1.571 11.317,2.394 17.1,2.45 4.011,0.095 8.024,-0.129 12,-0.67 4.33,-0.57 8.579,-1.644 12.66,-3.2 5.986,-2.257 11.404,-5.8 15.87,-10.38 4.936,-5.174 8.647,-11.391 10.86,-18.19 1.296,-3.805 2.184,-7.737 2.65,-11.73 0.232,-2.396 0.318,-4.804 0.26,-7.21 0.003,-0.05 0.003,-0.1 0,-0.15 h -8 c -0.13,-1.049 -0.317,-2.091 -0.56,-3.12 -1.055,-3.868 -4.015,-6.94 -7.84,-8.14 -0.223,-0.072 -0.398,-0.247 -0.47,-0.47 -0.29,-0.67 -0.59,-1.33 -0.94,-2 -0.175,-0.226 -0.175,-0.544 0,-0.77 l 13.61,-20.42 0.26,-0.41 -6.68,-4.3 -0.3,0.45 L 105.59,70 c -0.074,0.186 -0.255,0.309 -0.456,0.309 -0.074,0 -0.147,-0.016 -0.214,-0.049 -1.713,-0.566 -3.538,-0.714 -5.32,-0.43 -0.6,0.11 -1.2,0.25 -1.85,0.38 l 15.66,-28.73 -7.13,-3.72 -0.29,0.51 c -5.727,10.487 -11.453,20.98 -17.18,31.48 -0.069,0.208 -0.265,0.349 -0.484,0.349 -0.067,0 -0.134,-0.013 -0.196,-0.039 -0.922,-0.183 -1.854,-0.316 -2.79,-0.4 -0.332,-0.015 -0.649,-0.142 -0.9,-0.36 -5.411,-4.821 -13.669,-4.821 -19.08,0 -0.74,0.66 -1.38,1.44 -2.1,2.2 -0.14,-0.09 -0.32,-0.2 -0.51,-0.3 -3.355,-1.959 -7.461,-2.172 -11,-0.57 -2.937,1.223 -5.25,3.594 -6.4,6.56 -0.059,0.231 -0.284,0.383 -0.52,0.35 -0.668,-0.008 -1.337,0.029 -2,0.11 -2.882,0.387 -5.527,1.81 -7.44,4 -1.466,1.609 -2.441,3.605 -2.81,5.75 -0.11,0.66 -0.16,1.33 -0.24,2 z"
       clip-rule="evenodd"
       fill="none"
       stroke="none"
       stroke-width="1"
       stroke-linejoin="round"
       stroke-miterlimit="2" />
    <g
       id="elkrytco5yj8"
       transform="translate(-2,-2)"
       clip-rule="evenodd">
      <path
         id="elkrytco5yj9"
         d="m 21.58,89.46 h 10.77 c 0.08,-0.7 0.13,-1.37 0.24,-2 0.369,-2.145 1.344,-4.141 2.81,-5.75 1.913,-2.19 4.558,-3.613 7.44,-4 0.663,-0.081 1.332,-0.118 2,-0.11 0.236,0.033 0.461,-0.119 0.52,-0.35 1.15,-2.966 3.463,-5.337 6.4,-6.56 3.539,-1.602 7.645,-1.389 11,0.57 0.19,0.1 0.37,0.21 0.51,0.3 0.72,-0.76 1.36,-1.54 2.1,-2.2 5.411,-4.821 13.669,-4.821 19.08,0 0.251,0.218 0.568,0.345 0.9,0.36 0.936,0.084 1.868,0.217 2.79,0.4 0.062,0.026 0.129,0.039 0.196,0.039 0.219,0 0.415,-0.141 0.484,-0.349 4.511,-2.683 8.93,0.35 8.93,0.35 0.65,-0.13 1.25,-0.27 1.85,-0.38 1.782,-0.284 3.607,-0.136 5.32,0.43 0.067,0.033 0.14,0.049 0.214,0.049 0.201,0 3.942,1.396 6.746,5.511 0.415,0.609 0.65,1.3 0.94,2 0.072,0.223 0.247,0.398 0.47,0.47 3.825,1.2 6.785,4.272 7.84,8.14 0.243,1.029 0.43,2.071 0.56,3.12 h 10.77 c 0.003,0.05 0.003,0.1 0,0.15 0.058,2.406 -0.028,4.814 -0.26,7.21 -0.466,3.993 -4.124,7.925 -5.42,11.73 -2.213,6.799 -5.924,13.016 -10.86,18.19 -4.485,4.571 -9.92,8.102 -15.92,10.34 -4.081,1.556 -8.33,2.63 -12.66,3.2 -3.976,0.541 -7.989,0.765 -12,0.67 C 69.544,140.941 63.78,140.121 58.2,138.55 48.459,135.924 39.912,130.025 34,121.85 30.784,117.37 28.338,112.385 26.76,107.1 25.672,103.626 22.215,100.057 21.8,96.44 21.613,94.299 21.54,92.149 21.58,90 Z m 99.7,8 H 32.72 c 0.401,2.955 1.071,5.867 2,8.7 1.622,4.934 4.194,9.503 7.57,13.45 3.536,4.042 7.925,7.249 12.85,9.39 5.879,2.502 12.182,3.86 18.57,4 2.56,0.1 5.13,0 7.69,-0.07 2.847,-0.124 5.678,-0.495 8.46,-1.11 5.143,-1.014 10.049,-2.989 14.46,-5.82 3.519,-2.305 6.601,-5.217 9.1,-8.6 2.723,-3.721 4.796,-7.877 6.13,-12.29 0.772,-2.513 1.337,-5.085 1.69,-7.69 z m -32,-15.92 c -0.11,-0.45 -0.19,-0.87 -0.32,-1.28 -0.651,-1.802 -2.509,-2.895 -4.4,-2.59 -0.91,0.17 -1.82,0.39 -2.72,0.6 -0.176,0.069 -0.378,-0.005 -0.47,-0.17 -0.44,-0.62 -0.87,-1.24 -1.33,-1.85 -1.352,-2.014 -3.809,-3.004 -6.18,-2.49 -2.432,0.363 -4.385,2.227 -4.86,4.64 -0.22,0.92 -0.4,1.86 -0.57,2.79 -0.05,0.3 -0.18,0.35 -0.45,0.35 -2.027,-0.052 -4.055,0.072 -6.06,0.37 -0.208,0.059 -0.429,-0.056 -0.5,-0.26 -0.39,-0.71 -0.8,-1.41 -1.21,-2.11 -0.988,-1.648 -3.016,-2.382 -4.83,-1.75 -1.76,0.604 -2.878,2.36 -2.68,4.21 0.11,0.72 0.23,1.44 0.34,2.16 0.064,0.204 -0.019,0.427 -0.2,0.54 -1.25,0.86 -2.48,1.73 -3.71,2.61 -0.149,0.118 -0.361,0.118 -0.51,0 -0.74,-0.41 -1.51,-0.77 -2.23,-1.22 -1.456,-0.902 -3.352,-0.703 -4.59,0.48 -0.824,0.731 -1.3,1.779 -1.31,2.88 h 26 c -0.99,-0.214 -1.682,-1.129 -1.62,-2.14 0.068,-1.046 0.947,-1.87 1.996,-1.87 0.879,0 1.659,0.579 1.914,1.42 0.195,0.533 0.136,1.126 -0.16,1.61 -0.304,0.495 -0.788,0.854 -1.35,1 h 27.52 c -1.2,-0.49 -1.75,-1.32 -1.56,-2.29 0.169,-0.926 0.969,-1.613 1.91,-1.64 0.924,-0.033 1.756,0.579 2,1.47 0.136,0.516 0.053,1.067 -0.23,1.52 -0.312,0.496 -0.803,0.853 -1.37,1 h 17.87 c 0.01,-0.15 0.01,-0.3 0,-0.45 -0.277,-2.027 -2.045,-3.544 -4.09,-3.51 h -4 V 81.8 c -0.012,-0.488 -0.09,-0.972 -0.23,-1.44 -0.497,-1.512 -1.863,-2.581 -3.45,-2.7 -1.578,-0.193 -3.121,0.603 -3.88,2 -0.28,0.613 -0.508,1.248 -0.68,1.9 z"
         clip-rule="evenodd"
         fill="#333333"
         stroke="none"
         stroke-width="1"
         stroke-linejoin="round"
         stroke-miterlimit="2"
         style="fill:#dedaca;fill-opacity:1" />
    </g>
    <g
       id="elkrytco5yj10"
       transform="translate(-2,-2)"
       clip-rule="evenodd">
      <path
         id="elkrytco5yj11"
         d="m 121.24,97.42 c -0.355,2.592 -0.921,5.15 -1.69,7.65 -1.334,4.413 -3.407,8.569 -6.13,12.29 -2.499,3.383 -5.581,6.295 -9.1,8.6 -4.408,2.845 -9.314,4.834 -14.46,5.86 -2.782,0.615 -5.613,0.986 -8.46,1.11 -2.56,0.09 -5.13,0.17 -7.69,0.07 -6.388,-0.14 -12.691,-1.498 -18.57,-4 -4.922,-2.145 -9.308,-5.356 -12.84,-9.4 -3.376,-3.947 -5.948,-8.516 -7.57,-13.45 -0.929,-2.833 -1.599,-5.745 -2,-8.7 z"
         clip-rule="evenodd"
         fill="#ffffff"
         stroke="none"
         stroke-width="1"
         stroke-linejoin="round"
         stroke-miterlimit="2" />
    </g>
    <g
       id="elkrytco5yj12"
       transform="translate(-2,-2)"
       clip-rule="evenodd">
      <path
         id="elkrytco5yj13"
         d="m 89.21,81.5 h 7.89 c 0.172,-0.652 0.4,-1.287 0.68,-1.9 0.759,-1.397 2.302,-2.193 3.88,-2 1.587,0.119 2.953,1.188 3.45,2.7 0.14,0.468 0.218,0.952 0.23,1.44 v 3.77 h 4 c 2.039,-0.035 3.804,1.471 4.09,3.49 0.01,0.15 0.01,0.3 0,0.45 H 95.56 c 0.567,-0.147 1.058,-0.504 1.37,-1 0.264,-0.434 0.346,-0.955 0.23,-1.45 -0.244,-0.891 -1.076,-1.503 -2,-1.47 -0.941,0.027 -1.741,0.714 -1.91,1.64 -0.19,1 0.36,1.8 1.56,2.29 H 67.23 c 0.562,-0.146 1.046,-0.505 1.35,-1 0.296,-0.484 0.355,-1.077 0.16,-1.61 -0.255,-0.841 -1.035,-1.42 -1.914,-1.42 -1.049,0 -1.928,0.824 -1.996,1.87 -0.062,1.011 0.63,1.926 1.62,2.14 h -26 c 0.01,-1.101 0.486,-2.149 1.31,-2.88 1.238,-1.183 3.134,-1.382 4.59,-0.48 0.72,0.45 1.49,0.81 2.23,1.22 0.149,0.118 0.361,0.118 0.51,0 1.23,-0.88 2.46,-1.75 3.71,-2.61 0.181,-0.113 0.264,-0.336 0.2,-0.54 -0.11,-0.72 -0.23,-1.44 -0.34,-2.16 -0.178,-1.825 0.921,-3.55 2.65,-4.16 1.814,-0.632 3.842,0.102 4.83,1.75 0.41,0.7 0.82,1.4 1.21,2.11 0.071,0.204 0.292,0.319 0.5,0.26 2.034,-0.317 4.092,-0.454 6.15,-0.41 0.27,0 0.4,-0.05 0.45,-0.35 0.17,-0.93 0.35,-1.87 0.57,-2.79 0.455,-2.416 2.391,-4.297 4.82,-4.68 2.364,-0.505 4.811,0.484 6.16,2.49 0.46,0.61 0.89,1.23 1.33,1.85 0.092,0.165 0.294,0.239 0.47,0.17 0.9,-0.21 1.81,-0.43 2.72,-0.6 1.891,-0.305 3.749,0.788 4.4,2.59 0.08,0.41 0.18,0.83 0.29,1.28 z m -14.27,4 c 1.097,0 2,-0.903 2,-2 0,-1.097 -0.903,-2 -2,-2 -1.097,0 -2,0.903 -2,2 0.011,1.09 0.91,1.98 2,1.98 z"
         clip-rule="evenodd"
         fill="#ffffff"
         stroke="none"
         stroke-width="1"
         stroke-linejoin="round"
         stroke-miterlimit="2" />
    </g>
    <g
       id="elkrytco5yj14"
       transform="translate(-2,-2)"
       clip-rule="evenodd">
      <path
         id="elkrytco5yj15"
         d="m 74.94,85.48 c -1.097,0 -2,-0.903 -2,-2 0,-1.097 0.903,-2 2,-2 1.097,0 2,0.903 2,2 0,1.097 -0.903,2 -2,2 z"
         clip-rule="evenodd"
         fill="#333333"
         stroke="none"
         stroke-width="1"
         stroke-linejoin="round"
         stroke-miterlimit="2"
         style="fill:#dedaca;fill-opacity:1" />
    </g>
  </g>
  <g
     id="elkrytco5yj16"
     transform="matrix(1,0,0,0.851891,-2,-4.4265)"
     clip-rule="evenodd">
    <g
       id="elkrytco5yj17"
       clip-rule="evenodd">
      <path
         id="elkrytco5yj18"
         d="m 132.2,86.732 c 0,28 -24.71,58.928 -55.2,58.928 -30.49,0 -55.2,-30.948 -55.2,-58.928 z"
         clip-rule="evenodd"
         fill="#333333"
         stroke="none"
         stroke-width="1"
         stroke-linejoin="round"
         stroke-miterlimit="2"
         style="fill:#dedaca;fill-opacity:1" />
    </g>
  </g>
  <rect
     style="opacity:1;fill:#dedaca;fill-opacity:1;stroke-width:7.50432;stroke-linecap:round;paint-order:markers stroke fill"
     id="rect170"
     width="73.570213"
     height="1.6194636"
     x="38.056694"
     y="63.395599" />
</svg>
