<?xml version="1.0" encoding="UTF-8" standalone="no"?>
<!DOCTYPE svg PUBLIC "-//W3C//DTD SVG 1.1//EN" "http://www.w3.org/Graphics/SVG/1.1/DTD/svg11.dtd">
<svg width="100%" height="100%" viewBox="0 0 87 105" version="1.1" xmlns="http://www.w3.org/2000/svg" xmlns:xlink="http://www.w3.org/1999/xlink" xml:space="preserve" xmlns:serif="http://www.serif.com/" style="fill-rule:evenodd;clip-rule:evenodd;stroke-linejoin:round;stroke-miterlimit:2;">
    <g id="ArtBoard1" transform="matrix(0.985165,0,0,0.982288,1.3244,2.87073)">
        <rect x="-1.344" y="-2.922" width="88.31" height="106.893" style="fill:none;"/>
        <clipPath id="_clip1">
            <rect x="-1.344" y="-2.922" width="88.31" height="106.893"/>
        </clipPath>
        <g clip-path="url(#_clip1)">
            <g transform="matrix(8.73491e-17,1.4307,-1.19373,7.33088e-17,91.4577,-2.26259)">
                <path d="M37.252,4.86L72.83,74.587L1.673,74.587L37.252,4.86Z" style="fill:none;"/>
            </g>
            <g transform="matrix(8.73491e-17,1.4307,-1.19373,7.33088e-17,90.2298,-2.7716)">
                <path d="M38.77,3.754C38.447,3.121 37.872,2.734 37.252,2.734C36.631,2.734 36.056,3.121 35.733,3.754L0.155,73.48C-0.18,74.137 -0.193,74.958 0.122,75.628C0.437,76.298 1.03,76.713 1.673,76.713L72.83,76.713C73.473,76.713 74.066,76.298 74.381,75.628C74.696,74.958 74.683,74.137 74.349,73.48L38.77,3.754ZM69.662,72.461L37.252,8.944L4.842,72.461L69.662,72.461Z"/>
            </g>
        </g>
    </g>
</svg>
